name processed_emg_signals						
nRows=155						
nColumns=7						
 						
endheader						
time	LGLTMED	LRF	LADDLONG	LST	LTA	LGM
2.032	0.171265763	0.27843043	0.111393005	0.060728646	0.347631787	0.295125814
2.033	0.172471693	0.278372017	0.111422877	0.060804547	0.347612081	0.295659194
2.034	0.173677603	0.278314484	0.111443065	0.060873198	0.347593288	0.296159924
2.035	0.174881872	0.278257456	0.111453559	0.06093455	0.347575616	0.296626892
2.036	0.176082887	0.278200555	0.111454364	0.060988559	0.347559283	0.297059029
2.037	0.177279055	0.278143407	0.111445493	0.061035191	0.347544518	0.297455315
2.038	0.178468798	0.278085634	0.11142697	0.061074419	0.347531557	0.297814775
2.039	0.179650561	0.278026858	0.111398828	0.061106223	0.347520645	0.298136487
2.04	0.180822808	0.277966702	0.11136111	0.061130592	0.347512033	0.298419578
2.041	0.181984026	0.277904787	0.111313866	0.061147523	0.347505975	0.298663229
2.042	0.18313273	0.277840733	0.111257152	0.06115702	0.347502729	0.298866675
2.043	0.184267459	0.277774157	0.111191032	0.061159096	0.347502554	0.299029208
2.044	0.185386783	0.277704677	0.111115576	0.06115377	0.347505711	0.299150175
2.045	0.186489302	0.277631908	0.111030858	0.06114107	0.347512459	0.299228983
2.046	0.187573646	0.277555466	0.110936958	0.061121032	0.347523054	0.299265098
2.047	0.188638482	0.277474964	0.11083396	0.061093697	0.347537751	0.299258048
2.048	0.18968251	0.277390015	0.110721951	0.061059117	0.347556798	0.299207421
2.049	0.190704468	0.277300232	0.110601021	0.061017349	0.347580438	0.299112868
2.05	0.19170313	0.277205229	0.110471262	0.060968458	0.347608907	0.298974104
2.051	0.192677312	0.277104618	0.11033277	0.060912516	0.347642432	0.298790907
2.052	0.19362587	0.276998013	0.110185641	0.060849603	0.347681231	0.298563121
2.053	0.194547702	0.27688503	0.110029974	0.060779806	0.347725509	0.298290653
2.054	0.195441748	0.276765287	0.109865867	0.060703219	0.347775461	0.297973477
2.055	0.196306993	0.276638402	0.109693419	0.060619943	0.347831267	0.297611631
2.056	0.19714247	0.276504	0.109512732	0.060530086	0.347893093	0.297205219
2.057	0.197947253	0.276361707	0.109323906	0.060433762	0.347961088	0.296754411
2.058	0.198720467	0.276211153	0.109127041	0.060331094	0.348035384	0.296259439
2.059	0.199461283	0.276051977	0.108922239	0.060222209	0.348116093	0.295720604
2.06	0.20016892	0.275883819	0.1087096	0.060107244	0.348203308	0.295138269
2.061	0.200842647	0.275706328	0.108489226	0.059986339	0.348297101	0.294512862
2.062	0.201481781	0.275519159	0.108261216	0.059859643	0.34839752	0.293844872
2.063	0.202085689	0.275321976	0.108025672	0.059727309	0.34850459	0.293134853
2.064	0.202653787	0.27511445	0.107782695	0.059589499	0.348618312	0.29238342
2.065	0.203185541	0.274896261	0.107532385	0.059446379	0.348738658	0.291591248
2.066	0.203680467	0.2746671	0.107274843	0.059298121	0.348865575	0.290759072
2.067	0.204138129	0.274426667	0.107010171	0.059144904	0.348998982	0.289887685
2.068	0.204558142	0.274174672	0.106738471	0.058986911	0.349138769	0.288977939
2.069	0.204940169	0.273910838	0.106459847	0.058824332	0.349284795	0.288030739
2.07	0.205283922	0.273634898	0.106174401	0.058657361	0.349436888	0.287047047
2.071	0.20558916	0.273346597	0.10588224	0.058486196	0.349594847	0.286027877
2.072	0.20585569	0.273045695	0.10558347	0.058311042	0.349758439	0.284974295
2.073	0.206083367	0.272731962	0.105278199	0.058132107	0.349927396	0.283887417
2.074	0.206272089	0.272405183	0.104966537	0.057949604	0.35010142	0.282768407
2.075	0.206421802	0.272065157	0.104648599	0.057763748	0.35028018	0.281618474
2.076	0.206532497	0.271711696	0.104324498	0.057574758	0.350463312	0.280438874
2.077	0.206604206	0.271344627	0.103994354	0.057382859	0.350650419	0.279230903
2.078	0.206637005	0.270963792	0.103658287	0.057188275	0.350841071	0.277995899
2.079	0.206631013	0.270569049	0.103316424	0.056991235	0.351034807	0.276735239
2.08	0.206586387	0.270160268	0.102968893	0.056791968	0.351231131	0.275450334
2.081	0.206503327	0.269737338	0.102615826	0.056590706	0.351429518	0.274142632
2.082	0.20638207	0.269300163	0.102257361	0.056387683	0.351629411	0.272813612
2.083	0.206222891	0.268848663	0.101893641	0.056183132	0.351830221	0.27146478
2.084	0.2060261	0.268382773	0.101524812	0.055977289	0.352031331	0.270097674
2.085	0.205792045	0.267902446	0.101151027	0.055770386	0.352232093	0.268713853
2.086	0.205521107	0.267407653	0.100772443	0.05556266	0.352431834	0.267314901
2.087	0.205213701	0.26689838	0.100389225	0.055354343	0.352629851	0.265902419
2.088	0.204870271	0.266374631	0.100001541	0.055145669	0.352825416	0.26447803
2.089	0.204491297	0.265836428	0.099609567	0.054936867	0.353017776	0.263043369
2.09	0.204077283	0.265283811	0.099213486	0.054728168	0.353206154	0.261600082
2.091	0.203628764	0.264716839	0.098813487	0.054519798	0.353389753	0.260149829
2.092	0.203146304	0.264135587	0.098409764	0.054311981	0.353567752	0.258694275
2.093	0.202630488	0.26354015	0.098002521	0.054104938	0.353739312	0.257235089
2.094	0.202081929	0.262930644	0.097591966	0.053898888	0.353903578	0.255773944
2.095	0.201501264	0.262307202	0.097178317	0.053694043	0.354059675	0.254312509
2.096	0.200889149	0.261669977	0.096761797	0.053490615	0.354206717	0.252852454
2.097	0.200246262	0.261019143	0.096342636	0.053288809	0.354343803	0.25139544
2.098	0.199573302	0.260354894	0.095921072	0.053088824	0.354470022	0.249943119
2.099	0.198870985	0.259677444	0.095497351	0.052890857	0.354584455	0.248497135
2.1	0.198140044	0.258987029	0.095071725	0.052695097	0.354686173	0.247059114
2.101	0.197381229	0.258283905	0.094644452	0.05250173	0.354774243	0.245630669
2.102	0.196595302	0.25756835	0.094215799	0.052310933	0.354847729	0.244213392
2.103	0.195783043	0.256840666	0.093786039	0.052122877	0.354905692	0.242808854
2.104	0.194945241	0.256101172	0.093355451	0.05193773	0.354947195	0.241418602
2.105	0.194082696	0.255350216	0.092924322	0.051755649	0.354971301	0.240044156
2.106	0.193196222	0.254588162	0.092492944	0.051576785	0.35497708	0.23868701
2.107	0.192286639	0.253815401	0.092061615	0.051401284	0.354963604	0.237348625
2.108	0.191354775	0.253032347	0.09163064	0.051229281	0.354929956	0.236030429
2.109	0.190401467	0.252239434	0.09120033	0.051060907	0.354875227	0.234733815
2.11	0.189427557	0.251437121	0.090770999	0.050896283	0.354798521	0.23346014
2.111	0.188433891	0.250625892	0.090342969	0.050735521	0.354698954	0.232210721
2.112	0.187421321	0.249806251	0.089916564	0.050578728	0.354575657	0.230986835
2.113	0.186390702	0.248978729	0.089492116	0.050426	0.35442778	0.229789716
2.114	0.185342889	0.248143879	0.089069957	0.050277426	0.35425449	0.228620552
2.115	0.184278741	0.247302277	0.088650427	0.050133087	0.354054974	0.227480489
2.116	0.183199116	0.246454524	0.088233866	0.049993054	0.353828441	0.226370623
2.117	0.182104871	0.245601245	0.08782062	0.049857391	0.353574126	0.225292001
2.118	0.180996861	0.24474309	0.087411036	0.049726152	0.353291287	0.224245622
2.119	0.17987594	0.243880731	0.087005463	0.049599383	0.35297921	0.223232432
2.12	0.178742958	0.243014865	0.086604255	0.049477122	0.352637207	0.222253325
2.121	0.17759876	0.242146214	0.086207765	0.049359398	0.352264622	0.221309143
2.122	0.176444185	0.241275523	0.085816347	0.049246231	0.351860829	0.220400673
2.123	0.175280067	0.240403561	0.085430358	0.049137632	0.351425235	0.219528646
2.124	0.174107234	0.239531123	0.085050153	0.049033605	0.350957278	0.21869374
2.125	0.172926502	0.238659026	0.084676089	0.048934145	0.350456433	0.217896573
2.126	0.171738681	0.237788111	0.084308522	0.048839239	0.349922209	0.217137711
2.127	0.170544571	0.236919243	0.083947805	0.048748864	0.349354152	0.216417658
2.128	0.16934496	0.23605331	0.083594293	0.048662991	0.348751844	0.215736863
2.129	0.168140625	0.235191225	0.083248337	0.048581582	0.348114906	0.21509572
2.13	0.166932331	0.23433392	0.082910284	0.048504592	0.347442999	0.21449456
2.131	0.16572083	0.233482352	0.082580482	0.048431967	0.346735819	0.21393366
2.132	0.164506859	0.232637498	0.082259273	0.048363647	0.345993106	0.21341324
2.133	0.16329114	0.231800356	0.081946995	0.048299564	0.345214637	0.21293346
2.134	0.162074383	0.230971946	0.081643982	0.048239643	0.344400231	0.212494426
2.135	0.160857278	0.230153305	0.081350564	0.048183801	0.343549748	0.212096186
2.136	0.159640501	0.22934549	0.081067063	0.04813195	0.342663086	0.211738732
2.137	0.158424708	0.228549574	0.080793798	0.048083996	0.341740187	0.211422003
2.138	0.157210542	0.227766648	0.080531079	0.048039835	0.340781032	0.211145881
2.139	0.155998622	0.226997818	0.080279209	0.047999362	0.339785643	0.210910195
2.14	0.154789552	0.226244202	0.080038485	0.047962463	0.338754082	0.210714722
2.141	0.153583915	0.225506934	0.079809194	0.047929018	0.337686453	0.210559187
2.142	0.152382275	0.224787157	0.079591615	0.047898905	0.336582898	0.210443263
2.143	0.151185177	0.224086024	0.079386017	0.047871995	0.335443598	0.210366575
2.144	0.149993144	0.223404696	0.079192659	0.047848153	0.334268775	0.210328698
2.145	0.148806678	0.222744341	0.079011791	0.047827242	0.333058688	0.210329161
2.146	0.147626262	0.222106131	0.078843649	0.04780912	0.331813632	0.210367446
2.147	0.146452357	0.221491242	0.078688461	0.047793639	0.330533942	0.210442992
2.148	0.145285403	0.220900849	0.07854644	0.04778065	0.329219986	0.210555193
2.149	0.144125819	0.220336128	0.078417787	0.04777	0.327872168	0.210703403
2.15	0.142974002	0.21979825	0.078302692	0.047761531	0.326490925	0.210886933
2.151	0.141830328	0.219288383	0.078201328	0.047755085	0.325076727	0.211105059
2.152	0.140695152	0.218807684	0.078113855	0.047750498	0.323630077	0.211357017
2.153	0.139568808	0.218357304	0.07804042	0.047747605	0.322151506	0.211642008
2.154	0.138451609	0.217938379	0.077981154	0.04774624	0.320641575	0.2119592
2.155	0.137343846	0.217552033	0.07793617	0.047746232	0.319100874	0.212307726
2.156	0.136245789	0.217199372	0.07790557	0.047747411	0.317530019	0.21268669
2.157	0.13515769	0.216881483	0.077889436	0.047749605	0.31592965	0.213095167
2.158	0.134079777	0.216599432	0.077887834	0.047752639	0.314300432	0.213532202
2.159	0.133012262	0.216354261	0.077900815	0.047756338	0.312643052	0.213996816
2.16	0.131955333	0.216146986	0.077928411	0.047760527	0.310958219	0.214488002
2.161	0.130909161	0.215978594	0.077970637	0.047765029	0.309246661	0.215004733
2.162	0.129873898	0.21585004	0.078027492	0.047769668	0.307509123	0.215545958
2.163	0.128849677	0.215762248	0.078098955	0.047774266	0.305746369	0.216110607
2.164	0.12783661	0.215716105	0.078184989	0.047778647	0.303959176	0.216697588
2.165	0.126834795	0.215712459	0.078285537	0.047782635	0.302148337	0.217305795
2.166	0.125844308	0.215752119	0.078400528	0.047786055	0.300314654	0.217934102
2.167	0.124865211	0.215835852	0.078529868	0.047788732	0.298458943	0.21858137
2.168	0.123897548	0.215964378	0.078673448	0.047790493	0.296582028	0.219246445
2.169	0.122941345	0.216138374	0.078831142	0.047791167	0.294684739	0.21992816
2.17	0.121996612	0.216358464	0.079002803	0.047790583	0.292767916	0.220625337
2.171	0.121063345	0.216625226	0.07918827	0.047788574	0.2908324	0.221336786
2.172	0.120141523	0.216939181	0.079387361	0.047784975	0.288879037	0.22206131
2.173	0.119231109	0.217300799	0.079599879	0.047779624	0.286908676	0.222797702
2.174	0.118332052	0.217710493	0.079825609	0.047772359	0.284922164	0.223544748
2.175	0.117444288	0.218168618	0.080064319	0.047763026	0.28292035	0.224301226
2.176	0.116567736	0.218675471	0.080315761	0.047751472	0.28090408	0.225065913
2.177	0.115702302	0.219231287	0.08057967	0.047737547	0.278874196	0.225837576
2.178	0.11484788	0.219836241	0.080855766	0.047721107	0.276831536	0.226614984
2.179	0.114004349	0.220490444	0.081143752	0.047702011	0.274776934	0.227396901
2.18	0.113171577	0.221193944	0.081443317	0.047680125	0.272711214	0.22818209
2.181	0.112349417	0.221946724	0.081754135	0.047655317	0.270635196	0.228969312
2.182	0.111537711	0.2227487	0.082075866	0.047627463	0.268549689	0.229757333
2.183	0.110736289	0.223599723	0.082408155	0.047596443	0.266455493	0.230544916
2.184	0.10994497	0.224499577	0.082750635	0.047562144	0.264353399	0.231330828
2.185	0.109163561	0.225447979	0.083102926	0.047524458	0.262244184	0.232113842
2.186	0.108391857	0.226444576	0.083464634	0.047483286	0.260128617	0.232892731
